<svg width="900" height="240" viewBox="0 0 900 240" xmlns="http://www.w3.org/2000/svg" role="img" aria-label="Said Mohaddes Sadeqi — building a world beyond vision">
<title>Said Mohaddes Sadeqi — building voice-first, accessible technology</title>
<style>
  .bar { transform-box: fill-box; transform-origin: center; animation: pulse 1.4s ease-in-out infinite; }
  @keyframes pulse { 0%,100% { transform: scaleY(0.35); } 50% { transform: scaleY(1); } }
  @media (prefers-reduced-motion: reduce) { .bar { animation: none !important; transform: none !important; } }
</style>
<rect width="900" height="240" fill="#0c0c11"/>
<line x1="60" y1="120" x2="840" y2="120" stroke="#2a2a33" stroke-width="1"/>
<rect class="bar" x="60.0" y="101.5" width="5" height="37.1" rx="2.5" fill="#E24A94" style="animation-delay:0.00s"/>
<rect class="bar" x="77.2" y="96.7" width="5" height="46.6" rx="2.5" fill="#8A8FF0" style="animation-delay:0.11s"/>
<rect class="bar" x="94.4" y="92.3" width="5" height="55.3" rx="2.5" fill="#cfd2e6" style="animation-delay:0.22s"/>
<rect class="bar" x="111.7" y="88.6" width="5" height="62.8" rx="2.5" fill="#E24A94" style="animation-delay:0.33s"/>
<rect class="bar" x="128.9" y="85.8" width="5" height="68.4" rx="2.5" fill="#8A8FF0" style="animation-delay:0.44s"/>
<rect class="bar" x="146.1" y="84.1" width="5" height="71.8" rx="2.5" fill="#cfd2e6" style="animation-delay:0.55s"/>
<rect class="bar" x="163.3" y="83.6" width="5" height="72.8" rx="2.5" fill="#E24A94" style="animation-delay:0.66s"/>
<rect class="bar" x="180.6" y="84.2" width="5" height="71.6" rx="2.5" fill="#8A8FF0" style="animation-delay:0.77s"/>
<rect class="bar" x="197.8" y="85.8" width="5" height="68.4" rx="2.5" fill="#cfd2e6" style="animation-delay:0.88s"/>
<rect class="bar" x="215.0" y="88.2" width="5" height="63.7" rx="2.5" fill="#E24A94" style="animation-delay:0.99s"/>
<rect class="bar" x="232.2" y="91.0" width="5" height="57.9" rx="2.5" fill="#8A8FF0" style="animation-delay:1.10s"/>
<rect class="bar" x="249.4" y="94.1" width="5" height="51.8" rx="2.5" fill="#cfd2e6" style="animation-delay:1.21s"/>
<rect class="bar" x="266.7" y="97.0" width="5" height="45.9" rx="2.5" fill="#E24A94" style="animation-delay:0.00s"/>
<rect class="bar" x="283.9" y="99.5" width="5" height="40.9" rx="2.5" fill="#8A8FF0" style="animation-delay:0.11s"/>
<rect class="bar" x="301.1" y="101.4" width="5" height="37.3" rx="2.5" fill="#cfd2e6" style="animation-delay:0.22s"/>
<rect class="bar" x="318.3" y="100.5" width="5" height="39.0" rx="2.5" fill="#E24A94" style="animation-delay:0.33s"/>
<rect class="bar" x="335.6" y="100.4" width="5" height="39.2" rx="2.5" fill="#8A8FF0" style="animation-delay:0.44s"/>
<rect class="bar" x="352.8" y="101.1" width="5" height="37.8" rx="2.5" fill="#cfd2e6" style="animation-delay:0.55s"/>
<rect class="bar" x="370.0" y="100.4" width="5" height="39.2" rx="2.5" fill="#E24A94" style="animation-delay:0.66s"/>
<rect class="bar" x="387.2" y="98.5" width="5" height="43.0" rx="2.5" fill="#8A8FF0" style="animation-delay:0.77s"/>
<rect class="bar" x="404.4" y="96.4" width="5" height="47.2" rx="2.5" fill="#cfd2e6" style="animation-delay:0.88s"/>
<rect class="bar" x="421.7" y="94.4" width="5" height="51.2" rx="2.5" fill="#E24A94" style="animation-delay:0.99s"/>
<rect class="bar" x="438.9" y="92.8" width="5" height="54.5" rx="2.5" fill="#8A8FF0" style="animation-delay:1.10s"/>
<rect class="bar" x="456.1" y="91.8" width="5" height="56.4" rx="2.5" fill="#cfd2e6" style="animation-delay:1.21s"/>
<rect class="bar" x="473.3" y="91.7" width="5" height="56.6" rx="2.5" fill="#E24A94" style="animation-delay:0.00s"/>
<rect class="bar" x="490.6" y="92.6" width="5" height="54.8" rx="2.5" fill="#8A8FF0" style="animation-delay:0.11s"/>
<rect class="bar" x="507.8" y="94.5" width="5" height="51.0" rx="2.5" fill="#cfd2e6" style="animation-delay:0.22s"/>
<rect class="bar" x="525.0" y="97.3" width="5" height="45.3" rx="2.5" fill="#E24A94" style="animation-delay:0.33s"/>
<rect class="bar" x="542.2" y="101.0" width="5" height="38.1" rx="2.5" fill="#8A8FF0" style="animation-delay:0.44s"/>
<rect class="bar" x="559.4" y="97.8" width="5" height="44.4" rx="2.5" fill="#cfd2e6" style="animation-delay:0.55s"/>
<rect class="bar" x="576.7" y="93.5" width="5" height="53.0" rx="2.5" fill="#E24A94" style="animation-delay:0.66s"/>
<rect class="bar" x="593.9" y="89.3" width="5" height="61.4" rx="2.5" fill="#8A8FF0" style="animation-delay:0.77s"/>
<rect class="bar" x="611.1" y="85.6" width="5" height="68.9" rx="2.5" fill="#cfd2e6" style="animation-delay:0.88s"/>
<rect class="bar" x="628.3" y="82.6" width="5" height="74.7" rx="2.5" fill="#E24A94" style="animation-delay:0.99s"/>
<rect class="bar" x="645.6" y="80.7" width="5" height="78.5" rx="2.5" fill="#8A8FF0" style="animation-delay:1.10s"/>
<rect class="bar" x="662.8" y="80.0" width="5" height="79.9" rx="2.5" fill="#cfd2e6" style="animation-delay:1.21s"/>
<rect class="bar" x="680.0" y="80.5" width="5" height="78.9" rx="2.5" fill="#E24A94" style="animation-delay:0.00s"/>
<rect class="bar" x="697.2" y="82.3" width="5" height="75.5" rx="2.5" fill="#8A8FF0" style="animation-delay:0.11s"/>
<rect class="bar" x="714.4" y="85.0" width="5" height="70.0" rx="2.5" fill="#cfd2e6" style="animation-delay:0.22s"/>
<rect class="bar" x="731.7" y="88.5" width="5" height="62.9" rx="2.5" fill="#E24A94" style="animation-delay:0.33s"/>
<rect class="bar" x="748.9" y="92.6" width="5" height="54.9" rx="2.5" fill="#8A8FF0" style="animation-delay:0.44s"/>
<rect class="bar" x="766.1" y="96.7" width="5" height="46.5" rx="2.5" fill="#cfd2e6" style="animation-delay:0.55s"/>
<rect class="bar" x="783.3" y="100.7" width="5" height="38.5" rx="2.5" fill="#E24A94" style="animation-delay:0.66s"/>
<rect class="bar" x="800.6" y="98.6" width="5" height="42.7" rx="2.5" fill="#8A8FF0" style="animation-delay:0.77s"/>
<rect class="bar" x="817.8" y="95.9" width="5" height="48.2" rx="2.5" fill="#cfd2e6" style="animation-delay:0.88s"/>
<rect class="bar" x="835.0" y="94.0" width="5" height="51.9" rx="2.5" fill="#E24A94" style="animation-delay:0.99s"/>
<text x="450.0" y="188" text-anchor="middle" font-family="SFMono-Regular, Menlo, Consolas, monospace" font-size="24" font-weight="700" fill="#ffffff">Said Mohaddes Sadeqi</text>
<text x="450.0" y="212" text-anchor="middle" font-family="SFMono-Regular, Menlo, Consolas, monospace" font-size="13" fill="#b9bccb">Voice-first AI for blind users &#183; a world beyond vision</text>
<text x="34" y="42" font-family="SFMono-Regular, Menlo, Consolas, monospace" font-size="13" fill="#E24A94">// third eye worldwide</text>
</svg>